<mxfile host="app.diagrams.net" modified="2024-03-03T14:56:08.483Z" agent="Mozilla/5.0 (Windows NT 10.0; Win64; x64; rv:123.0) Gecko/20100101 Firefox/123.0" etag="XDZI9Zi6Brr60nxEe2Wx" version="24.0.1" type="device">
  <diagram name="1 oldal" id="gTyAqj4-adbOoO595Je8">
    <mxGraphModel dx="1050" dy="529" grid="1" gridSize="10" guides="1" tooltips="1" connect="1" arrows="1" fold="1" page="1" pageScale="1" pageWidth="827" pageHeight="1169" math="0" shadow="0">
      <root>
        <mxCell id="0" />
        <mxCell id="1" parent="0" />
        <mxCell id="izIBmqQ3XeswKk3rCBAt-1" value="Food App" style="swimlane;whiteSpace=wrap;html=1;fillColor=#00CC00;" parent="1" vertex="1">
          <mxGeometry width="720" height="470" as="geometry" />
        </mxCell>
        <mxCell id="izIBmqQ3XeswKk3rCBAt-3" value="" style="rounded=0;whiteSpace=wrap;html=1;fillColor=#000000;" parent="1" vertex="1">
          <mxGeometry y="20" width="720" height="450" as="geometry" />
        </mxCell>
        <mxCell id="izIBmqQ3XeswKk3rCBAt-4" value="" style="rounded=0;whiteSpace=wrap;html=1;fillColor=#000000;strokeColor=#CFCFCF;" parent="1" vertex="1">
          <mxGeometry y="20" width="150" height="450" as="geometry" />
        </mxCell>
        <mxCell id="izIBmqQ3XeswKk3rCBAt-5" value="&lt;font color=&quot;#00cc00&quot;&gt;Rendelés felvétele&lt;/font&gt;" style="rounded=0;whiteSpace=wrap;html=1;fillColor=#000000;strokeColor=#00CC00;" parent="1" vertex="1">
          <mxGeometry y="60" width="150" height="50" as="geometry" />
        </mxCell>
        <mxCell id="izIBmqQ3XeswKk3rCBAt-6" value="&lt;font style=&quot;font-size: 22px;&quot; color=&quot;#00cc00&quot;&gt;Menü&lt;/font&gt;" style="text;html=1;align=center;verticalAlign=middle;whiteSpace=wrap;rounded=0;" parent="1" vertex="1">
          <mxGeometry y="20" width="60" height="30" as="geometry" />
        </mxCell>
        <mxCell id="izIBmqQ3XeswKk3rCBAt-7" value="" style="rounded=0;whiteSpace=wrap;html=1;fillColor=#00CC00;strokeColor=#00CC00;" parent="1" vertex="1">
          <mxGeometry y="110" width="150" height="50" as="geometry" />
        </mxCell>
        <mxCell id="izIBmqQ3XeswKk3rCBAt-8" value="&lt;div&gt;&lt;font color=&quot;#00cc00&quot;&gt;Futárok&lt;br&gt;&lt;/font&gt;&lt;/div&gt;" style="rounded=0;whiteSpace=wrap;html=1;fillColor=#000000;strokeColor=#00CC00;" parent="1" vertex="1">
          <mxGeometry y="160" width="150" height="50" as="geometry" />
        </mxCell>
        <mxCell id="izIBmqQ3XeswKk3rCBAt-10" value="&lt;font color=&quot;#ff0000&quot;&gt;Kijelentkezés&lt;/font&gt;" style="rounded=0;whiteSpace=wrap;html=1;fillColor=#000000;strokeColor=#00CC00;" parent="1" vertex="1">
          <mxGeometry x="25" y="430" width="100" height="30" as="geometry" />
        </mxCell>
        <mxCell id="izIBmqQ3XeswKk3rCBAt-11" value="" style="rounded=0;whiteSpace=wrap;html=1;fillColor=#000000;strokeColor=#CFCFCF;" parent="1" vertex="1">
          <mxGeometry x="150" y="20" width="290" height="450" as="geometry" />
        </mxCell>
        <mxCell id="izIBmqQ3XeswKk3rCBAt-20" style="edgeStyle=orthogonalEdgeStyle;rounded=0;orthogonalLoop=1;jettySize=auto;html=1;exitX=0.75;exitY=1;exitDx=0;exitDy=0;" parent="1" edge="1">
          <mxGeometry relative="1" as="geometry">
            <mxPoint x="370" y="270" as="sourcePoint" />
            <mxPoint x="310" y="270" as="targetPoint" />
          </mxGeometry>
        </mxCell>
        <mxCell id="izIBmqQ3XeswKk3rCBAt-31" style="edgeStyle=orthogonalEdgeStyle;rounded=0;orthogonalLoop=1;jettySize=auto;html=1;exitX=0.5;exitY=1;exitDx=0;exitDy=0;" parent="1" edge="1">
          <mxGeometry relative="1" as="geometry">
            <mxPoint x="480" y="57.5" as="sourcePoint" />
            <mxPoint x="480" y="57.5" as="targetPoint" />
          </mxGeometry>
        </mxCell>
        <mxCell id="izIBmqQ3XeswKk3rCBAt-44" value="&lt;div&gt;&lt;font color=&quot;#00cc00&quot;&gt;Alkalmazottak kezelése&lt;br&gt;&lt;/font&gt;&lt;/div&gt;" style="rounded=0;whiteSpace=wrap;html=1;fillColor=#000000;strokeColor=#00CC00;" parent="1" vertex="1">
          <mxGeometry y="210" width="150" height="50" as="geometry" />
        </mxCell>
        <mxCell id="izIBmqQ3XeswKk3rCBAt-45" value="&lt;div&gt;&lt;font color=&quot;#00cc00&quot;&gt;Statisztikák&lt;br&gt;&lt;/font&gt;&lt;/div&gt;" style="rounded=0;whiteSpace=wrap;html=1;fillColor=#000000;strokeColor=#00CC00;" parent="1" vertex="1">
          <mxGeometry y="260" width="150" height="50" as="geometry" />
        </mxCell>
        <mxCell id="izIBmqQ3XeswKk3rCBAt-46" value="&lt;div&gt;&lt;font color=&quot;#00cc00&quot;&gt;Aktív rendelések&lt;/font&gt;&lt;/div&gt;" style="rounded=1;whiteSpace=wrap;html=1;fillColor=#000000;" parent="1" vertex="1">
          <mxGeometry x="10" y="120" width="130" height="30" as="geometry" />
        </mxCell>
        <mxCell id="izIBmqQ3XeswKk3rCBAt-47" value="" style="rounded=1;whiteSpace=wrap;html=1;fillColor=#000000;strokeColor=#CFCFCF;" parent="1" vertex="1">
          <mxGeometry x="150" y="70" width="290" height="140" as="geometry" />
        </mxCell>
        <mxCell id="izIBmqQ3XeswKk3rCBAt-48" value="&lt;div style=&quot;font-size: 26px;&quot;&gt;&lt;font style=&quot;font-size: 26px;&quot; color=&quot;#00cc00&quot;&gt;Aktív rendelések&lt;/font&gt;&lt;/div&gt;" style="text;html=1;align=center;verticalAlign=middle;whiteSpace=wrap;rounded=0;" parent="1" vertex="1">
          <mxGeometry x="160" y="30" width="200" height="30" as="geometry" />
        </mxCell>
        <mxCell id="izIBmqQ3XeswKk3rCBAt-49" value="" style="rounded=1;whiteSpace=wrap;html=1;fillColor=#333333;" parent="1" vertex="1">
          <mxGeometry x="160" y="75" width="20" height="15" as="geometry" />
        </mxCell>
        <mxCell id="izIBmqQ3XeswKk3rCBAt-50" value="Text" style="text;html=1;align=center;verticalAlign=middle;whiteSpace=wrap;rounded=0;" parent="1" vertex="1">
          <mxGeometry x="380" y="230" width="60" height="30" as="geometry" />
        </mxCell>
        <mxCell id="izIBmqQ3XeswKk3rCBAt-51" value="&lt;font style=&quot;font-size: 14px;&quot; color=&quot;#00cc00&quot;&gt;Minta János 1&lt;/font&gt;" style="text;html=1;align=center;verticalAlign=middle;whiteSpace=wrap;rounded=0;" parent="1" vertex="1">
          <mxGeometry x="190" y="75" width="90" height="30" as="geometry" />
        </mxCell>
        <mxCell id="izIBmqQ3XeswKk3rCBAt-53" value="&lt;font style=&quot;font-size: 11px;&quot; color=&quot;#00cc00&quot;&gt;06/11 111 1111&lt;/font&gt;&lt;font style=&quot;font-size: 11px;&quot; color=&quot;#00cc00&quot;&gt;&lt;br&gt;&lt;/font&gt;" style="text;html=1;align=center;verticalAlign=middle;whiteSpace=wrap;rounded=0;" parent="1" vertex="1">
          <mxGeometry x="190" y="90" width="80" height="30" as="geometry" />
        </mxCell>
        <mxCell id="izIBmqQ3XeswKk3rCBAt-55" value="&lt;font color=&quot;#00cc00&quot;&gt;Elvitel&lt;/font&gt;" style="text;html=1;align=center;verticalAlign=middle;whiteSpace=wrap;rounded=0;" parent="1" vertex="1">
          <mxGeometry x="159.42" y="105" width="100" height="30" as="geometry" />
        </mxCell>
        <mxCell id="izIBmqQ3XeswKk3rCBAt-56" value="&lt;font style=&quot;font-size: 16px;&quot;&gt;Készül&lt;/font&gt;" style="rounded=1;whiteSpace=wrap;html=1;fillColor=#827C14;" parent="1" vertex="1">
          <mxGeometry x="334" y="75" width="100" height="30" as="geometry" />
        </mxCell>
        <mxCell id="izIBmqQ3XeswKk3rCBAt-61" value="" style="endArrow=none;html=1;rounded=0;exitX=1;exitY=0.5;exitDx=0;exitDy=0;entryX=1.001;entryY=0.469;entryDx=0;entryDy=0;strokeColor=#CFCFCF;entryPerimeter=0;" parent="1" source="izIBmqQ3XeswKk3rCBAt-7" target="izIBmqQ3XeswKk3rCBAt-47" edge="1">
          <mxGeometry width="50" height="50" relative="1" as="geometry">
            <mxPoint x="250" y="180" as="sourcePoint" />
            <mxPoint x="300" y="130" as="targetPoint" />
          </mxGeometry>
        </mxCell>
        <mxCell id="izIBmqQ3XeswKk3rCBAt-62" value="" style="endArrow=none;html=1;rounded=0;exitX=0;exitY=0.5;exitDx=0;exitDy=0;entryX=1;entryY=0.5;entryDx=0;entryDy=0;strokeColor=#CFCFCF;" parent="1" edge="1">
          <mxGeometry width="50" height="50" relative="1" as="geometry">
            <mxPoint x="150" y="160" as="sourcePoint" />
            <mxPoint x="440" y="160" as="targetPoint" />
          </mxGeometry>
        </mxCell>
        <mxCell id="izIBmqQ3XeswKk3rCBAt-63" value="" style="endArrow=none;html=1;rounded=0;exitX=0;exitY=0.5;exitDx=0;exitDy=0;entryX=1;entryY=0.5;entryDx=0;entryDy=0;strokeColor=#CFCFCF;" parent="1" edge="1">
          <mxGeometry width="50" height="50" relative="1" as="geometry">
            <mxPoint x="150" y="184.83" as="sourcePoint" />
            <mxPoint x="440" y="184.83" as="targetPoint" />
          </mxGeometry>
        </mxCell>
        <mxCell id="izIBmqQ3XeswKk3rCBAt-64" value="&lt;font color=&quot;#00cc00&quot;&gt;Tétel 1&lt;/font&gt;" style="text;html=1;align=center;verticalAlign=middle;whiteSpace=wrap;rounded=0;" parent="1" vertex="1">
          <mxGeometry x="150" y="135" width="60" height="20" as="geometry" />
        </mxCell>
        <mxCell id="izIBmqQ3XeswKk3rCBAt-65" value="&lt;font color=&quot;#00cc00&quot;&gt;Tétel 2&lt;br&gt;&lt;/font&gt;" style="text;html=1;align=center;verticalAlign=middle;whiteSpace=wrap;rounded=0;" parent="1" vertex="1">
          <mxGeometry x="150" y="160" width="60" height="20" as="geometry" />
        </mxCell>
        <mxCell id="izIBmqQ3XeswKk3rCBAt-66" value="&lt;font color=&quot;#00cc00&quot;&gt;Tétel 3&lt;br&gt;&lt;/font&gt;" style="text;html=1;align=center;verticalAlign=middle;whiteSpace=wrap;rounded=0;" parent="1" vertex="1">
          <mxGeometry x="150" y="180" width="60" height="20" as="geometry" />
        </mxCell>
        <mxCell id="izIBmqQ3XeswKk3rCBAt-67" value="" style="rounded=1;whiteSpace=wrap;html=1;fillColor=#333333;" parent="1" vertex="1">
          <mxGeometry x="414" y="110" width="20" height="20" as="geometry" />
        </mxCell>
        <mxCell id="izIBmqQ3XeswKk3rCBAt-68" value="" style="rounded=1;whiteSpace=wrap;html=1;fillColor=#000000;strokeColor=#CFCFCF;" parent="1" vertex="1">
          <mxGeometry x="149.71" y="215" width="290" height="140" as="geometry" />
        </mxCell>
        <mxCell id="izIBmqQ3XeswKk3rCBAt-69" value="" style="rounded=1;whiteSpace=wrap;html=1;fillColor=#00CC00;fontColor=#00CC00;" parent="1" vertex="1">
          <mxGeometry x="159.71" y="220" width="20" height="15" as="geometry" />
        </mxCell>
        <mxCell id="izIBmqQ3XeswKk3rCBAt-70" value="&lt;font style=&quot;font-size: 14px;&quot; color=&quot;#00cc00&quot;&gt;Minta János 1&lt;/font&gt;" style="text;html=1;align=center;verticalAlign=middle;whiteSpace=wrap;rounded=0;" parent="1" vertex="1">
          <mxGeometry x="189.71" y="220" width="90" height="30" as="geometry" />
        </mxCell>
        <mxCell id="izIBmqQ3XeswKk3rCBAt-71" value="&lt;font style=&quot;font-size: 11px;&quot; color=&quot;#00cc00&quot;&gt;06/11 111 1111&lt;/font&gt;&lt;font style=&quot;font-size: 11px;&quot; color=&quot;#00cc00&quot;&gt;&lt;br&gt;&lt;/font&gt;" style="text;html=1;align=center;verticalAlign=middle;whiteSpace=wrap;rounded=0;" parent="1" vertex="1">
          <mxGeometry x="189.71" y="235" width="80" height="30" as="geometry" />
        </mxCell>
        <mxCell id="izIBmqQ3XeswKk3rCBAt-72" value="&lt;font color=&quot;#00cc00&quot;&gt;Minta utca 1&lt;br&gt;&lt;/font&gt;" style="text;html=1;align=center;verticalAlign=middle;whiteSpace=wrap;rounded=0;" parent="1" vertex="1">
          <mxGeometry x="169.71" y="250" width="100" height="30" as="geometry" />
        </mxCell>
        <mxCell id="izIBmqQ3XeswKk3rCBAt-73" value="&lt;font style=&quot;font-size: 16px;&quot;&gt;Kész&lt;/font&gt;" style="rounded=1;whiteSpace=wrap;html=1;fillColor=#00CC00;" parent="1" vertex="1">
          <mxGeometry x="333.71" y="220" width="100" height="30" as="geometry" />
        </mxCell>
        <mxCell id="izIBmqQ3XeswKk3rCBAt-74" value="" style="endArrow=none;html=1;rounded=0;exitX=1;exitY=0.5;exitDx=0;exitDy=0;entryX=1.001;entryY=0.469;entryDx=0;entryDy=0;strokeColor=#CFCFCF;entryPerimeter=0;" parent="1" target="izIBmqQ3XeswKk3rCBAt-68" edge="1">
          <mxGeometry width="50" height="50" relative="1" as="geometry">
            <mxPoint x="149.71" y="280" as="sourcePoint" />
            <mxPoint x="299.71" y="275" as="targetPoint" />
          </mxGeometry>
        </mxCell>
        <mxCell id="izIBmqQ3XeswKk3rCBAt-75" value="" style="endArrow=none;html=1;rounded=0;exitX=0;exitY=0.5;exitDx=0;exitDy=0;entryX=1;entryY=0.5;entryDx=0;entryDy=0;strokeColor=#CFCFCF;" parent="1" edge="1">
          <mxGeometry width="50" height="50" relative="1" as="geometry">
            <mxPoint x="149.71" y="305" as="sourcePoint" />
            <mxPoint x="439.71" y="305" as="targetPoint" />
          </mxGeometry>
        </mxCell>
        <mxCell id="izIBmqQ3XeswKk3rCBAt-76" value="" style="endArrow=none;html=1;rounded=0;exitX=0;exitY=0.5;exitDx=0;exitDy=0;entryX=1;entryY=0.5;entryDx=0;entryDy=0;strokeColor=#CFCFCF;" parent="1" edge="1">
          <mxGeometry width="50" height="50" relative="1" as="geometry">
            <mxPoint x="149.71" y="329.83000000000004" as="sourcePoint" />
            <mxPoint x="439.71" y="329.83000000000004" as="targetPoint" />
          </mxGeometry>
        </mxCell>
        <mxCell id="izIBmqQ3XeswKk3rCBAt-77" value="&lt;font color=&quot;#00cc00&quot;&gt;Tétel 1&lt;/font&gt;" style="text;html=1;align=center;verticalAlign=middle;whiteSpace=wrap;rounded=0;" parent="1" vertex="1">
          <mxGeometry x="149.71" y="280" width="60" height="20" as="geometry" />
        </mxCell>
        <mxCell id="izIBmqQ3XeswKk3rCBAt-78" value="&lt;font color=&quot;#00cc00&quot;&gt;Tétel 2&lt;br&gt;&lt;/font&gt;" style="text;html=1;align=center;verticalAlign=middle;whiteSpace=wrap;rounded=0;" parent="1" vertex="1">
          <mxGeometry x="149.71" y="305" width="60" height="20" as="geometry" />
        </mxCell>
        <mxCell id="izIBmqQ3XeswKk3rCBAt-79" value="&lt;font color=&quot;#00cc00&quot;&gt;Tétel 3&lt;br&gt;&lt;/font&gt;" style="text;html=1;align=center;verticalAlign=middle;whiteSpace=wrap;rounded=0;" parent="1" vertex="1">
          <mxGeometry x="149.71" y="325" width="60" height="20" as="geometry" />
        </mxCell>
        <mxCell id="izIBmqQ3XeswKk3rCBAt-80" value="" style="rounded=1;whiteSpace=wrap;html=1;fillColor=#333333;" parent="1" vertex="1">
          <mxGeometry x="413.71" y="255" width="20" height="20" as="geometry" />
        </mxCell>
        <mxCell id="izIBmqQ3XeswKk3rCBAt-81" value="" style="rounded=1;whiteSpace=wrap;html=1;fillColor=#000000;strokeColor=#CFCFCF;" parent="1" vertex="1">
          <mxGeometry x="149.42" y="360" width="290" height="110" as="geometry" />
        </mxCell>
        <mxCell id="izIBmqQ3XeswKk3rCBAt-82" value="" style="rounded=1;whiteSpace=wrap;html=1;fillColor=#333333;" parent="1" vertex="1">
          <mxGeometry x="159.42000000000002" y="365" width="20" height="15" as="geometry" />
        </mxCell>
        <mxCell id="izIBmqQ3XeswKk3rCBAt-83" value="&lt;font style=&quot;font-size: 14px;&quot; color=&quot;#00cc00&quot;&gt;Minta János 1&lt;/font&gt;" style="text;html=1;align=center;verticalAlign=middle;whiteSpace=wrap;rounded=0;" parent="1" vertex="1">
          <mxGeometry x="189.42000000000002" y="365" width="90" height="30" as="geometry" />
        </mxCell>
        <mxCell id="izIBmqQ3XeswKk3rCBAt-84" value="&lt;font style=&quot;font-size: 11px;&quot; color=&quot;#00cc00&quot;&gt;06/11 111 1111&lt;/font&gt;&lt;font style=&quot;font-size: 11px;&quot; color=&quot;#00cc00&quot;&gt;&lt;br&gt;&lt;/font&gt;" style="text;html=1;align=center;verticalAlign=middle;whiteSpace=wrap;rounded=0;" parent="1" vertex="1">
          <mxGeometry x="189.42000000000002" y="380" width="80" height="30" as="geometry" />
        </mxCell>
        <mxCell id="izIBmqQ3XeswKk3rCBAt-85" value="&lt;font color=&quot;#00cc00&quot;&gt;Minta utca 1&lt;br&gt;&lt;/font&gt;" style="text;html=1;align=center;verticalAlign=middle;whiteSpace=wrap;rounded=0;" parent="1" vertex="1">
          <mxGeometry x="169.42000000000002" y="395" width="100" height="30" as="geometry" />
        </mxCell>
        <mxCell id="izIBmqQ3XeswKk3rCBAt-86" value="&lt;font style=&quot;font-size: 16px;&quot;&gt;16:40&lt;/font&gt;" style="rounded=1;whiteSpace=wrap;html=1;fillColor=#333333;" parent="1" vertex="1">
          <mxGeometry x="333.42" y="365" width="100" height="30" as="geometry" />
        </mxCell>
        <mxCell id="izIBmqQ3XeswKk3rCBAt-87" value="" style="endArrow=none;html=1;rounded=0;exitX=1;exitY=0.5;exitDx=0;exitDy=0;entryX=0.999;entryY=0.582;entryDx=0;entryDy=0;strokeColor=#CFCFCF;entryPerimeter=0;" parent="1" target="izIBmqQ3XeswKk3rCBAt-81" edge="1">
          <mxGeometry width="50" height="50" relative="1" as="geometry">
            <mxPoint x="149.42000000000002" y="425" as="sourcePoint" />
            <mxPoint x="299.42" y="420" as="targetPoint" />
          </mxGeometry>
        </mxCell>
        <mxCell id="izIBmqQ3XeswKk3rCBAt-88" value="" style="endArrow=none;html=1;rounded=0;exitX=0;exitY=0.5;exitDx=0;exitDy=0;entryX=1;entryY=0.5;entryDx=0;entryDy=0;strokeColor=#CFCFCF;" parent="1" edge="1">
          <mxGeometry width="50" height="50" relative="1" as="geometry">
            <mxPoint x="149.42000000000002" y="450" as="sourcePoint" />
            <mxPoint x="439.42" y="450" as="targetPoint" />
          </mxGeometry>
        </mxCell>
        <mxCell id="izIBmqQ3XeswKk3rCBAt-89" value="" style="endArrow=none;html=1;rounded=0;exitX=0;exitY=0.5;exitDx=0;exitDy=0;entryX=1;entryY=0.5;entryDx=0;entryDy=0;strokeColor=#CFCFCF;" parent="1" edge="1">
          <mxGeometry width="50" height="50" relative="1" as="geometry">
            <mxPoint x="149.42000000000002" y="474.83000000000004" as="sourcePoint" />
            <mxPoint x="439.42" y="474.83000000000004" as="targetPoint" />
          </mxGeometry>
        </mxCell>
        <mxCell id="izIBmqQ3XeswKk3rCBAt-90" value="&lt;font color=&quot;#00cc00&quot;&gt;Tétel 1&lt;/font&gt;" style="text;html=1;align=center;verticalAlign=middle;whiteSpace=wrap;rounded=0;" parent="1" vertex="1">
          <mxGeometry x="149.42000000000002" y="425" width="60" height="20" as="geometry" />
        </mxCell>
        <mxCell id="izIBmqQ3XeswKk3rCBAt-91" value="&lt;font color=&quot;#00cc00&quot;&gt;Tétel 2&lt;br&gt;&lt;/font&gt;" style="text;html=1;align=center;verticalAlign=middle;whiteSpace=wrap;rounded=0;" parent="1" vertex="1">
          <mxGeometry x="149.42000000000002" y="450" width="60" height="20" as="geometry" />
        </mxCell>
        <mxCell id="izIBmqQ3XeswKk3rCBAt-93" value="" style="rounded=1;whiteSpace=wrap;html=1;fillColor=#333333;" parent="1" vertex="1">
          <mxGeometry x="413.42" y="400" width="20" height="20" as="geometry" />
        </mxCell>
        <mxCell id="izIBmqQ3XeswKk3rCBAt-95" value="&lt;font style=&quot;font-size: 16px;&quot; color=&quot;#00cc00&quot;&gt;Szállítási cím&lt;br&gt;&lt;/font&gt;" style="text;html=1;align=center;verticalAlign=middle;whiteSpace=wrap;rounded=0;" parent="1" vertex="1">
          <mxGeometry x="400" y="97.5" width="240" height="30" as="geometry" />
        </mxCell>
        <mxCell id="izIBmqQ3XeswKk3rCBAt-96" value="" style="rounded=0;whiteSpace=wrap;html=1;fillColor=#000000;strokeColor=#CFCFCF;" parent="1" vertex="1">
          <mxGeometry x="465" y="172.5" width="240" height="30" as="geometry" />
        </mxCell>
        <mxCell id="izIBmqQ3XeswKk3rCBAt-97" value="" style="rounded=0;whiteSpace=wrap;html=1;fillColor=#000000;strokeColor=#CFCFCF;" parent="1" vertex="1">
          <mxGeometry x="465" y="132.5" width="240" height="30" as="geometry" />
        </mxCell>
        <mxCell id="izIBmqQ3XeswKk3rCBAt-98" value="" style="rounded=0;whiteSpace=wrap;html=1;fillColor=#000000;strokeColor=#CFCFCF;" parent="1" vertex="1">
          <mxGeometry x="465" y="212.5" width="240" height="30" as="geometry" />
        </mxCell>
        <mxCell id="izIBmqQ3XeswKk3rCBAt-99" value="" style="rounded=0;whiteSpace=wrap;html=1;fillColor=#000000;strokeColor=#CFCFCF;" parent="1" vertex="1">
          <mxGeometry x="465" y="252.5" width="240" height="30" as="geometry" />
        </mxCell>
        <mxCell id="izIBmqQ3XeswKk3rCBAt-100" value="" style="rounded=0;whiteSpace=wrap;html=1;fillColor=#000000;strokeColor=#CFCFCF;" parent="1" vertex="1">
          <mxGeometry x="465" y="302.5" width="240" height="80" as="geometry" />
        </mxCell>
        <mxCell id="izIBmqQ3XeswKk3rCBAt-102" value="&lt;font color=&quot;#00cc00&quot;&gt;Mentés&lt;/font&gt;" style="rounded=1;whiteSpace=wrap;html=1;fillColor=#000000;strokeColor=#CFCFCF;" parent="1" vertex="1">
          <mxGeometry x="605" y="397.5" width="100" height="35" as="geometry" />
        </mxCell>
        <mxCell id="izIBmqQ3XeswKk3rCBAt-103" value="&lt;font color=&quot;#00cc00&quot;&gt;YYYY.MM.DD&lt;/font&gt;" style="rounded=1;whiteSpace=wrap;html=1;fillColor=#000000;strokeColor=#CFCFCF;" parent="1" vertex="1">
          <mxGeometry x="465" y="402.5" width="135" height="30" as="geometry" />
        </mxCell>
        <mxCell id="izIBmqQ3XeswKk3rCBAt-104" value="&lt;font color=&quot;#00cc00&quot;&gt;Időzítés&lt;/font&gt;" style="text;html=1;align=center;verticalAlign=middle;whiteSpace=wrap;rounded=0;" parent="1" vertex="1">
          <mxGeometry x="455" y="382.5" width="60" height="20" as="geometry" />
        </mxCell>
        <mxCell id="izIBmqQ3XeswKk3rCBAt-106" value="&lt;br&gt;&lt;font style=&quot;font-size: 23px;&quot; color=&quot;#00cc00&quot;&gt;Tételek szerkesztése&lt;/font&gt;&lt;div&gt;&lt;br/&gt;&lt;/div&gt;" style="rounded=0;whiteSpace=wrap;html=1;fillColor=#000000;strokeColor=#00CC00;" parent="1" vertex="1">
          <mxGeometry x="440" y="20" width="280" height="30" as="geometry" />
        </mxCell>
        <mxCell id="izIBmqQ3XeswKk3rCBAt-107" value="&lt;br&gt;&lt;font style=&quot;font-size: 23px;&quot;&gt;Rendelés szerkesztése&lt;/font&gt;&lt;div&gt;&lt;br/&gt;&lt;/div&gt;" style="rounded=0;whiteSpace=wrap;html=1;fillColor=#00CC00;" parent="1" vertex="1">
          <mxGeometry x="440" y="50" width="280" height="30" as="geometry" />
        </mxCell>
        <mxCell id="q95HFkJe15duSnHv-srR-1" value="&lt;font color=&quot;#ff8585&quot;&gt;Rendelés törlése&lt;/font&gt;" style="rounded=1;whiteSpace=wrap;html=1;fillColor=#000000;strokeColor=#FF8585;" parent="1" vertex="1">
          <mxGeometry x="605" y="90" width="105" height="30" as="geometry" />
        </mxCell>
      </root>
    </mxGraphModel>
  </diagram>
</mxfile>
